<svg preserveAspectRatio="none" overflow="visible" style="display: block;" width="10" height="10" viewBox="0 0 10 10" fill="none" xmlns="http://www.w3.org/2000/svg">
<g id="music" clip-path="url(#clip0_0_6)">
<path id="Vector" d="M3.75 7.5V2.08333L8.75 1.25V6.66667M3.75 7.5C3.75 8.19036 3.19036 8.75 2.5 8.75C1.80964 8.75 1.25 8.19036 1.25 7.5C1.25 6.80964 1.80964 6.25 2.5 6.25C3.19036 6.25 3.75 6.80964 3.75 7.5ZM8.75 6.66667C8.75 7.35702 8.19036 7.91667 7.5 7.91667C6.80964 7.91667 6.25 7.35702 6.25 6.66667C6.25 5.97631 6.80964 5.41667 7.5 5.41667C8.19036 5.41667 8.75 5.97631 8.75 6.66667Z" stroke="#8E8E98" stroke-width="2" stroke-linecap="round"/>
</g>
<defs>
<clipPath id="clip0_0_6">
<rect width="10" height="10" fill="white"/>
</clipPath>
</defs>
</svg>
